<svg xmlns="http://www.w3.org/2000/svg" viewBox="0 0 25.667 14">
  <defs>
    <style>
      .cls-1 {
        fill: #4a4a4a;
      }

      .cls-2 {
        fill: #fdca46;
      }
    </style>
  </defs>
  <g id="组_9" data-name="组 9" transform="translate(-346 -509)">
    <g id="一般" transform="translate(246 192)">
      <path id="电池电量" class="cls-1" d="M136.5,298.466v-2.333a2.339,2.339,0,0,0-2.333-2.333H114.333A2.339,2.339,0,0,0,112,296.133v9.334a2.339,2.339,0,0,0,2.333,2.333h19.834a2.339,2.339,0,0,0,2.333-2.333v-2.333a1.172,1.172,0,0,0,1.168-1.168v-2.333A1.17,1.17,0,0,0,136.5,298.466Zm-1.168,1.168v5.834a1.172,1.172,0,0,1-1.168,1.168H114.333a1.172,1.172,0,0,1-1.168-1.168v-9.334a1.172,1.172,0,0,1,1.168-1.168h19.834a1.172,1.172,0,0,1,1.168,1.168Zm0,0" transform="translate(-12 23.2)"/>
      <rect id="矩形_4" data-name="矩形 4" class="cls-2" width="11" height="10" transform="translate(102 319)"/>
    </g>
  </g>
</svg>
