<svg xmlns="http://www.w3.org/2000/svg" viewBox="0 0 25.667 14">
  <defs>
    <style>
      .cls-1 {
        fill: #4a4a4a;
      }

      .cls-2 {
        fill: #f7635a;
      }
    </style>
  </defs>
  <g id="组_8" data-name="组 8" transform="translate(-330 -481)">
    <g id="完毕" transform="translate(234 142)">
      <g id="组_6" data-name="组 6" transform="translate(-4 2)">
        <path id="电池电量" class="cls-1" d="M136.5,298.466v-2.333a2.339,2.339,0,0,0-2.333-2.333H114.333A2.339,2.339,0,0,0,112,296.133v9.334a2.339,2.339,0,0,0,2.333,2.333h19.834a2.339,2.339,0,0,0,2.333-2.333v-2.333a1.172,1.172,0,0,0,1.168-1.168v-2.333A1.17,1.17,0,0,0,136.5,298.466Zm-1.168,1.168v5.834a1.172,1.172,0,0,1-1.168,1.168H114.333a1.172,1.172,0,0,1-1.168-1.168v-9.334a1.172,1.172,0,0,1,1.168-1.168h19.834a1.172,1.172,0,0,1,1.168,1.168Zm0,0" transform="translate(-12 43.2)"/>
        <rect id="矩形_5" data-name="矩形 5" class="cls-2" width="4" height="10" transform="translate(102 339)"/>
      </g>
    </g>
  </g>
</svg>
