<svg xmlns="http://www.w3.org/2000/svg" viewBox="0 0 99.296 83.306">
  <defs>
    <style>
      .cls-1 {
        fill: #4a4a4a;
      }
    </style>
  </defs>
  <path id="empty_1_" data-name="empty (1)" class="cls-1" d="M86.356,29.636c1.056,1.832-1.32-3.4-5.281-3.4H18.222a5.817,5.817,0,0,0-5.282,3.141C11.62,31.468,0,49.009,0,52.674V76.5a6.962,6.962,0,0,0,6.866,6.807H92.43A6.789,6.789,0,0,0,99.3,76.5V52.675c0-3.4-12.94-23.039-12.94-23.039ZM63.909,51.1A2.92,2.92,0,0,0,60.74,53.46v.524a11.092,11.092,0,0,1-22.184,0V53.2A3.511,3.511,0,0,0,35.387,51.1H6.074L16.109,33.039S17.957,29.9,20.6,29.9H79.754c2.113,0,2.377.785,3.961,3.141L93.751,51.1H63.909Zm-35.651-34.3L20.6,9.476a1.733,1.733,0,0,1,0-2.618,2.085,2.085,0,0,1,2.9,0l7.658,7.069a2.041,2.041,0,0,1,0,2.88,2.394,2.394,0,0,1-2.9,0ZM49.12,13.665a1.989,1.989,0,0,1-.528-1.309L48.328,2.145A2.029,2.029,0,0,1,50.176.051a1.689,1.689,0,0,1,2.113,1.571l.264,10.211a1.971,1.971,0,0,1-1.32,1.833,1.609,1.609,0,0,1-2.113,0Zm19.543,2.618a1.884,1.884,0,0,1,0-2.617l7.13-7.593a2.086,2.086,0,0,1,2.906,0,2.042,2.042,0,0,1,0,2.88l-7.13,7.593a2.03,2.03,0,0,1-1.321.524c-.792-.262-1.32-.262-1.584-.785Z" transform="translate(0 0)"/>
</svg>
